<svg xmlns="http://www.w3.org/2000/svg" viewBox="0 0 1211 248" role="img" aria-label="CorretorInteligente">
<path d="M 171 189 L 171 203 L 172 204 L 186 204 L 186 189 Z M 149 189 L 149 204 L 164 204 L 164 189 Z M 171 166 L 171 181 L 172 182 L 186 182 L 186 166 Z M 149 166 L 149 181 L 150 182 L 164 182 L 164 166 Z M 690 124 L 680 124 L 679 125 L 678 125 L 677 126 L 674 127 L 671 130 L 671 131 L 670 132 L 669 131 L 669 126 L 668 125 L 658 125 L 658 180 L 659 181 L 668 181 L 669 180 L 669 146 L 670 145 L 670 143 L 671 142 L 671 141 L 676 136 L 677 136 L 680 134 L 691 134 L 691 125 Z M 598 130 L 594 134 L 594 135 L 592 137 L 592 138 L 590 141 L 590 143 L 589 144 L 589 147 L 588 148 L 588 157 L 589 158 L 589 162 L 590 163 L 590 165 L 591 166 L 591 167 L 593 169 L 593 170 L 600 177 L 601 177 L 606 180 L 608 180 L 609 181 L 612 181 L 613 182 L 623 182 L 624 181 L 627 181 L 628 180 L 630 180 L 631 179 L 633 179 L 635 177 L 636 177 L 639 174 L 640 174 L 640 173 L 643 170 L 643 169 L 645 167 L 645 165 L 647 162 L 647 159 L 648 158 L 648 148 L 647 147 L 647 144 L 646 143 L 646 141 L 645 140 L 644 137 L 642 135 L 642 134 L 638 130 L 637 130 L 635 128 L 634 128 L 631 126 L 629 126 L 628 125 L 626 125 L 625 124 L 611 124 L 610 125 L 608 125 L 607 126 L 605 126 L 604 127 L 601 128 L 599 130 Z M 614 133 L 621 133 L 622 134 L 625 134 L 626 135 L 629 136 L 634 141 L 634 142 L 636 145 L 636 147 L 637 148 L 637 158 L 636 159 L 636 161 L 635 162 L 635 163 L 628 170 L 627 170 L 624 172 L 612 172 L 611 171 L 608 170 L 603 166 L 603 165 L 601 163 L 601 162 L 600 161 L 600 159 L 599 158 L 599 147 L 600 146 L 600 145 L 601 144 L 602 141 L 607 136 L 608 136 L 611 134 L 613 134 Z M 498 130 L 495 133 L 495 134 L 493 136 L 493 137 L 490 142 L 490 145 L 489 146 L 489 159 L 490 160 L 490 163 L 491 164 L 491 166 L 492 167 L 492 168 L 494 170 L 494 171 L 498 175 L 499 175 L 502 178 L 503 178 L 504 179 L 506 179 L 509 181 L 514 181 L 515 182 L 526 182 L 527 181 L 532 181 L 533 180 L 536 180 L 537 179 L 539 179 L 540 178 L 540 175 L 539 174 L 539 170 L 536 170 L 535 171 L 533 171 L 532 172 L 527 172 L 526 173 L 516 173 L 515 172 L 512 172 L 511 171 L 508 170 L 501 163 L 501 161 L 500 160 L 500 157 L 501 156 L 502 157 L 542 157 L 544 155 L 544 148 L 543 147 L 543 142 L 542 141 L 542 140 L 541 139 L 541 137 L 539 135 L 539 134 L 533 128 L 532 128 L 527 125 L 525 125 L 524 124 L 511 124 L 510 125 L 507 125 L 506 126 L 505 126 L 504 127 L 501 128 L 499 130 Z M 499 147 L 500 146 L 500 144 L 501 143 L 502 140 L 507 135 L 508 135 L 511 133 L 516 133 L 517 132 L 518 132 L 519 133 L 523 133 L 524 134 L 527 135 L 531 139 L 531 140 L 533 143 L 533 148 L 532 149 L 501 149 Z M 485 124 L 476 124 L 475 125 L 473 125 L 472 126 L 469 127 L 466 130 L 466 131 L 464 133 L 463 132 L 463 125 L 453 125 L 453 180 L 454 181 L 463 181 L 464 180 L 464 146 L 465 145 L 465 143 L 466 142 L 466 141 L 471 136 L 472 136 L 475 134 L 486 134 L 486 125 Z M 444 124 L 434 124 L 433 125 L 431 125 L 430 126 L 429 126 L 424 131 L 424 132 L 423 133 L 422 132 L 422 125 L 412 125 L 412 181 L 422 181 L 422 149 L 423 148 L 423 145 L 424 144 L 424 142 L 428 137 L 429 137 L 431 135 L 432 135 L 433 134 L 444 134 Z M 351 130 L 347 134 L 347 135 L 345 137 L 345 138 L 343 141 L 343 143 L 342 144 L 342 147 L 341 148 L 341 158 L 342 159 L 342 162 L 343 163 L 343 165 L 344 166 L 344 167 L 346 169 L 346 170 L 353 177 L 354 177 L 356 179 L 358 179 L 359 180 L 361 180 L 362 181 L 365 181 L 366 182 L 376 182 L 377 181 L 380 181 L 381 180 L 383 180 L 384 179 L 386 179 L 387 178 L 388 178 L 391 175 L 392 175 L 394 173 L 394 172 L 397 169 L 397 168 L 400 163 L 400 160 L 401 159 L 401 146 L 400 145 L 400 143 L 399 142 L 399 140 L 398 139 L 398 138 L 396 136 L 396 135 L 391 130 L 390 130 L 388 128 L 387 128 L 382 125 L 379 125 L 378 124 L 364 124 L 363 125 L 361 125 L 360 126 L 358 126 L 357 127 L 354 128 L 352 130 Z M 368 133 L 374 133 L 375 134 L 378 134 L 379 135 L 382 136 L 388 142 L 388 143 L 389 144 L 389 146 L 390 147 L 390 150 L 391 151 L 391 155 L 390 156 L 390 159 L 389 160 L 389 162 L 387 164 L 387 165 L 383 169 L 382 169 L 377 172 L 373 172 L 372 173 L 370 173 L 369 172 L 365 172 L 364 171 L 361 170 L 354 163 L 354 162 L 353 161 L 353 159 L 352 158 L 352 147 L 353 146 L 353 145 L 354 144 L 355 141 L 360 136 L 361 136 L 364 134 L 367 134 Z M 301 128 L 292 137 L 292 138 L 290 141 L 290 143 L 289 144 L 289 147 L 288 148 L 288 158 L 289 159 L 289 162 L 290 163 L 290 165 L 291 166 L 291 167 L 293 169 L 293 170 L 300 177 L 301 177 L 306 180 L 308 180 L 309 181 L 313 181 L 314 182 L 324 182 L 325 181 L 331 181 L 332 180 L 334 180 L 336 178 L 335 177 L 335 170 L 334 170 L 333 171 L 330 171 L 329 172 L 323 172 L 322 173 L 319 173 L 318 172 L 313 172 L 312 171 L 310 171 L 309 170 L 308 170 L 301 163 L 301 162 L 300 161 L 300 159 L 299 158 L 299 148 L 300 147 L 300 145 L 301 144 L 302 141 L 306 137 L 307 137 L 309 135 L 311 135 L 312 134 L 315 134 L 316 133 L 325 133 L 326 134 L 331 134 L 332 135 L 335 135 L 335 126 L 334 126 L 333 125 L 329 125 L 328 124 L 312 124 L 311 125 L 308 125 L 307 126 L 305 126 L 304 127 Z M 555 109 L 554 110 L 554 166 L 555 167 L 555 170 L 556 171 L 556 173 L 558 175 L 558 176 L 559 177 L 560 177 L 562 179 L 563 179 L 564 180 L 566 180 L 567 181 L 571 181 L 572 182 L 577 182 L 578 181 L 583 181 L 584 180 L 584 172 L 578 172 L 577 173 L 574 173 L 573 172 L 570 172 L 569 171 L 568 171 L 566 169 L 566 168 L 565 167 L 565 165 L 564 164 L 564 135 L 565 134 L 571 134 L 572 133 L 578 133 L 579 134 L 583 134 L 583 125 L 565 125 L 564 124 L 564 110 L 563 109 Z M 109 141 L 109 228 L 122 228 L 122 149 L 124 147 L 125 147 L 127 145 L 128 145 L 130 143 L 131 143 L 133 141 L 134 141 L 136 139 L 137 139 L 139 137 L 140 137 L 142 135 L 143 135 L 145 133 L 146 133 L 148 131 L 149 131 L 151 129 L 152 129 L 154 127 L 155 127 L 157 125 L 158 125 L 160 123 L 161 123 L 163 121 L 164 121 L 166 119 L 167 119 L 168 118 L 170 120 L 171 120 L 173 122 L 174 122 L 179 126 L 182 127 L 184 129 L 185 129 L 188 132 L 189 132 L 191 134 L 192 134 L 194 136 L 195 136 L 197 138 L 198 138 L 200 140 L 201 140 L 203 142 L 204 142 L 206 144 L 207 144 L 209 146 L 210 146 L 213 149 L 213 227 L 214 228 L 226 228 L 227 227 L 227 140 L 225 140 L 224 139 L 223 139 L 220 136 L 219 136 L 217 134 L 216 134 L 213 131 L 212 131 L 211 130 L 210 130 L 208 128 L 205 127 L 203 125 L 202 125 L 200 123 L 199 123 L 197 121 L 196 121 L 194 119 L 193 119 L 191 117 L 190 117 L 188 115 L 187 115 L 185 113 L 184 113 L 182 111 L 181 111 L 179 109 L 178 109 L 176 107 L 175 107 L 170 103 L 167 102 L 165 104 L 164 104 L 162 106 L 161 106 L 159 108 L 158 108 L 156 110 L 155 110 L 153 112 L 152 112 L 150 114 L 149 114 L 147 116 L 146 116 L 144 118 L 143 118 L 141 120 L 140 120 L 138 122 L 137 122 L 135 124 L 134 124 L 132 126 L 131 126 L 129 128 L 128 128 L 123 132 L 120 133 L 118 135 L 117 135 L 115 137 L 114 137 Z M 56 221 L 56 229 L 57 230 L 57 231 L 61 235 L 62 235 L 63 236 L 65 236 L 66 237 L 70 237 L 71 236 L 73 236 L 74 235 L 75 235 L 78 232 L 78 231 L 80 228 L 108 228 L 108 222 L 107 221 L 80 221 L 79 220 L 78 217 L 75 214 L 74 214 L 73 213 L 71 213 L 70 212 L 66 212 L 65 213 L 63 213 L 62 214 L 61 214 L 57 218 L 57 220 Z M 11 159 L 11 161 L 10 162 L 10 168 L 11 169 L 11 171 L 16 176 L 17 176 L 18 177 L 26 177 L 27 176 L 30 175 L 32 173 L 32 172 L 34 170 L 34 169 L 35 168 L 56 168 L 58 170 L 59 170 L 61 172 L 62 172 L 65 175 L 66 175 L 68 177 L 69 177 L 71 179 L 72 179 L 74 181 L 75 181 L 78 184 L 79 184 L 81 186 L 82 186 L 84 188 L 85 188 L 87 190 L 88 190 L 90 192 L 91 192 L 93 194 L 94 194 L 96 196 L 97 196 L 100 199 L 101 199 L 103 201 L 104 201 L 106 203 L 107 203 L 108 204 L 108 196 L 107 196 L 104 193 L 103 193 L 101 191 L 100 191 L 98 189 L 97 189 L 95 187 L 94 187 L 91 184 L 90 184 L 88 182 L 87 182 L 85 180 L 84 180 L 82 178 L 81 178 L 79 176 L 78 176 L 75 173 L 74 173 L 72 171 L 71 171 L 69 169 L 68 169 L 66 167 L 65 167 L 63 165 L 62 165 L 60 163 L 59 163 L 58 162 L 35 162 L 34 161 L 33 158 L 29 154 L 28 154 L 27 153 L 18 153 L 17 154 L 16 154 Z M 904 126 L 904 181 L 912 181 L 913 180 L 913 126 Z M 700 126 L 700 181 L 708 181 L 709 180 L 709 126 Z M 1158 130 L 1153 135 L 1153 136 L 1151 138 L 1151 139 L 1150 140 L 1150 142 L 1149 143 L 1149 145 L 1148 146 L 1148 160 L 1149 161 L 1149 164 L 1150 165 L 1150 166 L 1151 167 L 1152 170 L 1159 177 L 1160 177 L 1162 179 L 1164 179 L 1165 180 L 1167 180 L 1168 181 L 1171 181 L 1172 182 L 1184 182 L 1185 181 L 1190 181 L 1191 180 L 1193 180 L 1194 179 L 1197 179 L 1197 171 L 1196 170 L 1195 170 L 1192 172 L 1189 172 L 1188 173 L 1184 173 L 1183 174 L 1174 174 L 1173 173 L 1170 173 L 1169 172 L 1168 172 L 1167 171 L 1164 170 L 1160 166 L 1160 165 L 1157 160 L 1157 158 L 1158 157 L 1200 157 L 1200 144 L 1199 143 L 1199 141 L 1198 140 L 1198 138 L 1197 137 L 1197 136 L 1190 129 L 1189 129 L 1184 126 L 1181 126 L 1180 125 L 1169 125 L 1168 126 L 1166 126 L 1165 127 L 1163 127 L 1162 128 L 1161 128 L 1159 130 Z M 1157 146 L 1158 145 L 1158 144 L 1159 143 L 1160 140 L 1164 136 L 1165 136 L 1167 134 L 1169 134 L 1170 133 L 1180 133 L 1181 134 L 1184 135 L 1190 141 L 1190 143 L 1191 144 L 1191 147 L 1192 148 L 1190 150 L 1158 150 L 1157 149 Z M 1054 126 L 1054 130 L 1053 131 L 1053 180 L 1054 181 L 1062 181 L 1063 180 L 1063 146 L 1064 145 L 1064 143 L 1065 142 L 1065 141 L 1070 136 L 1071 136 L 1074 134 L 1077 134 L 1078 133 L 1082 133 L 1083 134 L 1086 134 L 1087 135 L 1088 135 L 1093 140 L 1093 141 L 1094 142 L 1094 145 L 1095 146 L 1095 181 L 1104 181 L 1104 143 L 1103 142 L 1103 139 L 1102 138 L 1102 137 L 1101 136 L 1100 133 L 1096 129 L 1095 129 L 1093 127 L 1091 127 L 1090 126 L 1088 126 L 1087 125 L 1077 125 L 1076 126 L 1074 126 L 1073 127 L 1071 127 L 1069 129 L 1068 129 L 1063 134 L 1062 133 L 1062 126 Z M 998 132 L 998 133 L 994 137 L 994 138 L 992 141 L 992 143 L 991 144 L 991 148 L 990 149 L 990 158 L 991 159 L 991 162 L 992 163 L 992 165 L 993 166 L 993 167 L 994 168 L 995 171 L 1000 176 L 1001 176 L 1003 178 L 1004 178 L 1007 180 L 1009 180 L 1010 181 L 1014 181 L 1015 182 L 1026 182 L 1027 181 L 1032 181 L 1033 180 L 1036 180 L 1037 179 L 1039 179 L 1040 178 L 1040 177 L 1039 176 L 1039 170 L 1038 170 L 1037 171 L 1035 171 L 1034 172 L 1032 172 L 1031 173 L 1026 173 L 1025 174 L 1017 174 L 1016 173 L 1013 173 L 1012 172 L 1011 172 L 1010 171 L 1007 170 L 1002 165 L 1002 164 L 1000 161 L 1000 158 L 1001 157 L 1042 157 L 1043 156 L 1043 145 L 1042 144 L 1042 142 L 1041 141 L 1041 139 L 1040 138 L 1039 135 L 1033 129 L 1032 129 L 1029 127 L 1027 127 L 1026 126 L 1024 126 L 1023 125 L 1012 125 L 1011 126 L 1008 126 L 1007 127 L 1006 127 L 1005 128 L 1002 129 L 999 132 Z M 1000 146 L 1001 145 L 1001 143 L 1002 142 L 1002 141 L 1008 135 L 1009 135 L 1012 133 L 1022 133 L 1023 134 L 1025 134 L 1027 136 L 1028 136 L 1031 139 L 1031 140 L 1034 145 L 1034 149 L 1033 150 L 1001 150 L 1000 149 Z M 980 126 L 972 126 L 972 133 L 971 134 L 967 130 L 966 130 L 964 128 L 963 128 L 962 127 L 960 127 L 959 126 L 957 126 L 956 125 L 945 125 L 944 126 L 942 126 L 941 127 L 939 127 L 938 128 L 935 129 L 928 136 L 928 137 L 925 142 L 925 144 L 924 145 L 924 148 L 923 149 L 923 156 L 924 157 L 924 162 L 925 163 L 925 165 L 926 166 L 927 169 L 929 171 L 929 172 L 934 177 L 935 177 L 937 179 L 938 179 L 939 180 L 942 180 L 943 181 L 947 181 L 948 182 L 955 182 L 956 181 L 959 181 L 960 180 L 961 180 L 962 179 L 965 178 L 970 173 L 971 173 L 972 174 L 972 176 L 971 177 L 971 185 L 970 186 L 970 188 L 969 189 L 969 190 L 963 196 L 962 196 L 961 197 L 959 197 L 958 198 L 953 198 L 952 199 L 948 199 L 947 198 L 941 198 L 940 197 L 937 197 L 936 196 L 934 196 L 931 194 L 931 196 L 930 197 L 930 203 L 931 203 L 932 204 L 934 204 L 935 205 L 938 205 L 939 206 L 945 206 L 946 207 L 955 207 L 956 206 L 961 206 L 962 205 L 964 205 L 965 204 L 968 203 L 970 201 L 971 201 L 975 197 L 975 196 L 977 194 L 977 193 L 978 192 L 978 190 L 979 189 L 979 187 L 980 186 Z M 948 133 L 956 133 L 957 134 L 959 134 L 960 135 L 963 136 L 968 141 L 968 142 L 970 144 L 970 146 L 971 147 L 971 151 L 972 152 L 972 155 L 971 156 L 971 160 L 970 161 L 970 163 L 968 165 L 968 166 L 964 170 L 963 170 L 958 173 L 955 173 L 954 174 L 950 174 L 949 173 L 945 173 L 944 172 L 943 172 L 941 170 L 940 170 L 936 166 L 936 165 L 933 160 L 933 147 L 934 146 L 934 145 L 935 144 L 936 141 L 941 136 L 942 136 L 945 134 L 947 134 Z M 826 131 L 823 134 L 823 135 L 819 140 L 819 142 L 818 143 L 818 146 L 817 147 L 817 160 L 818 161 L 818 164 L 819 165 L 819 166 L 820 167 L 821 170 L 828 177 L 829 177 L 834 180 L 836 180 L 837 181 L 841 181 L 842 182 L 853 182 L 854 181 L 859 181 L 860 180 L 862 180 L 863 179 L 866 179 L 867 178 L 867 177 L 866 176 L 866 170 L 865 170 L 864 171 L 862 171 L 861 172 L 858 172 L 857 173 L 853 173 L 852 174 L 844 174 L 843 173 L 840 173 L 839 172 L 837 172 L 836 171 L 835 171 L 828 164 L 828 163 L 827 162 L 827 160 L 826 159 L 826 158 L 827 157 L 869 157 L 870 156 L 870 148 L 869 147 L 869 143 L 868 142 L 868 140 L 867 139 L 866 136 L 864 134 L 864 133 L 862 131 L 861 131 L 858 128 L 857 128 L 856 127 L 854 127 L 853 126 L 851 126 L 850 125 L 839 125 L 838 126 L 835 126 L 834 127 L 832 127 L 830 129 L 829 129 L 827 131 Z M 826 148 L 827 147 L 827 145 L 828 144 L 828 142 L 830 140 L 830 139 L 832 137 L 833 137 L 835 135 L 836 135 L 839 133 L 849 133 L 850 134 L 852 134 L 857 138 L 857 139 L 859 141 L 859 142 L 860 143 L 860 145 L 861 146 L 861 149 L 860 150 L 828 150 Z M 722 126 L 722 181 L 731 181 L 731 149 L 732 148 L 732 144 L 733 143 L 733 142 L 735 140 L 735 139 L 737 137 L 738 137 L 740 135 L 741 135 L 742 134 L 745 134 L 746 133 L 751 133 L 752 134 L 755 134 L 756 135 L 757 135 L 761 139 L 761 140 L 763 143 L 763 146 L 764 147 L 764 181 L 772 181 L 772 179 L 773 178 L 773 164 L 772 163 L 772 159 L 773 158 L 773 149 L 772 148 L 772 141 L 771 140 L 771 137 L 770 136 L 770 135 L 767 132 L 767 131 L 766 130 L 765 130 L 763 128 L 762 128 L 759 126 L 756 126 L 755 125 L 745 125 L 744 126 L 742 126 L 741 127 L 738 128 L 736 130 L 735 130 L 733 132 L 733 133 L 732 134 L 731 133 L 731 126 Z M 1115 111 L 1115 169 L 1116 170 L 1116 172 L 1117 173 L 1117 174 L 1122 179 L 1123 179 L 1126 181 L 1130 181 L 1131 182 L 1137 182 L 1138 181 L 1143 181 L 1144 180 L 1144 179 L 1143 178 L 1143 172 L 1142 172 L 1141 173 L 1131 173 L 1130 172 L 1127 171 L 1124 166 L 1124 135 L 1125 134 L 1142 134 L 1142 126 L 1125 126 L 1124 125 L 1124 111 Z M 784 111 L 784 168 L 785 169 L 785 171 L 786 172 L 787 175 L 791 179 L 792 179 L 793 180 L 795 180 L 796 181 L 799 181 L 800 182 L 806 182 L 807 181 L 812 181 L 813 180 L 813 175 L 812 174 L 812 172 L 811 172 L 810 173 L 800 173 L 799 172 L 798 172 L 794 168 L 794 167 L 793 166 L 793 135 L 794 134 L 811 134 L 812 133 L 812 127 L 811 126 L 794 126 L 793 125 L 793 111 Z M 905 103 L 903 106 L 903 111 L 905 113 L 906 113 L 907 114 L 910 114 L 911 113 L 912 113 L 914 110 L 914 106 L 911 103 Z M 881 103 L 881 180 L 882 181 L 890 181 L 890 180 L 891 179 L 891 103 Z M 704 102 L 703 103 L 701 103 L 699 105 L 699 111 L 701 113 L 702 113 L 703 114 L 706 114 L 709 112 L 709 111 L 710 110 L 710 106 L 709 105 L 709 104 L 708 104 L 707 103 Z M 77 76 L 76 77 L 75 77 L 73 79 L 72 79 L 72 80 L 70 82 L 70 83 L 69 84 L 69 92 L 70 93 L 71 96 L 74 99 L 75 99 L 78 101 L 78 156 L 79 157 L 80 157 L 82 159 L 83 159 L 86 162 L 89 163 L 92 166 L 93 166 L 95 168 L 96 168 L 99 171 L 100 171 L 105 175 L 108 176 L 108 169 L 105 166 L 102 165 L 99 162 L 98 162 L 96 160 L 95 160 L 93 158 L 92 158 L 90 156 L 89 156 L 84 152 L 84 101 L 86 99 L 89 98 L 90 97 L 90 96 L 92 94 L 92 93 L 93 92 L 93 84 L 92 83 L 92 82 L 87 77 L 86 77 L 85 76 Z M 140 10 L 139 11 L 139 101 L 140 102 L 142 100 L 143 100 L 146 97 L 149 96 L 152 93 L 153 93 L 153 36 L 154 35 L 155 36 L 156 36 L 158 38 L 159 38 L 161 40 L 162 40 L 164 42 L 165 42 L 167 44 L 168 44 L 170 46 L 173 47 L 175 49 L 176 49 L 178 51 L 179 51 L 184 55 L 187 56 L 189 58 L 190 58 L 195 62 L 198 63 L 200 65 L 201 65 L 203 67 L 204 67 L 206 69 L 207 69 L 209 71 L 210 71 L 213 74 L 213 130 L 216 133 L 217 133 L 219 135 L 220 135 L 223 138 L 224 138 L 225 139 L 227 139 L 227 66 L 225 64 L 224 64 L 222 62 L 219 61 L 217 59 L 216 59 L 214 57 L 213 57 L 208 53 L 205 52 L 203 50 L 202 50 L 197 46 L 194 45 L 192 43 L 191 43 L 189 41 L 188 41 L 186 39 L 185 39 L 183 37 L 182 37 L 177 33 L 174 32 L 169 28 L 166 27 L 163 24 L 160 23 L 158 21 L 157 21 L 155 19 L 154 19 L 152 17 L 151 17 L 146 13 L 145 13 L 144 12 L 143 12 L 141 10 Z" fill="#FFFFFF" fill-rule="evenodd"/>
</svg>