<svg xmlns="http://www.w3.org/2000/svg" viewBox="0 0 234 244" role="img" aria-label="Símbolo CorretorInteligente">
<defs>
  <linearGradient id="navy" x1="0" y1="0" x2="1" y2="1"><stop offset="0" stop-color="#28384F"/><stop offset="1" stop-color="#1D293A"/></linearGradient>
  <linearGradient id="teal" x1="0" y1="0" x2="1" y2="1"><stop offset="0" stop-color="#19A99A"/><stop offset="1" stop-color="#00857E"/></linearGradient>
</defs>
<path d="M 169 187 L 169 201 L 170 202 L 184 202 L 184 187 Z M 147 187 L 147 202 L 162 202 L 162 187 Z M 169 164 L 169 179 L 170 180 L 184 180 L 184 164 Z M 147 164 L 147 179 L 148 180 L 162 180 L 162 164 Z M 107 139 L 107 226 L 120 226 L 120 147 L 122 145 L 123 145 L 125 143 L 126 143 L 128 141 L 129 141 L 131 139 L 132 139 L 134 137 L 135 137 L 137 135 L 138 135 L 140 133 L 141 133 L 143 131 L 144 131 L 146 129 L 147 129 L 149 127 L 150 127 L 152 125 L 153 125 L 155 123 L 156 123 L 158 121 L 159 121 L 161 119 L 162 119 L 164 117 L 165 117 L 166 116 L 168 118 L 169 118 L 171 120 L 172 120 L 177 124 L 180 125 L 182 127 L 183 127 L 186 130 L 187 130 L 189 132 L 190 132 L 192 134 L 193 134 L 195 136 L 196 136 L 198 138 L 199 138 L 201 140 L 202 140 L 204 142 L 205 142 L 207 144 L 208 144 L 211 147 L 211 225 L 212 226 L 224 226 L 225 225 L 225 138 L 223 138 L 222 137 L 221 137 L 218 134 L 217 134 L 215 132 L 214 132 L 211 129 L 210 129 L 209 128 L 208 128 L 206 126 L 203 125 L 201 123 L 200 123 L 198 121 L 197 121 L 195 119 L 194 119 L 192 117 L 191 117 L 189 115 L 188 115 L 186 113 L 185 113 L 183 111 L 182 111 L 180 109 L 179 109 L 177 107 L 176 107 L 174 105 L 173 105 L 168 101 L 165 100 L 163 102 L 162 102 L 160 104 L 159 104 L 157 106 L 156 106 L 154 108 L 153 108 L 151 110 L 150 110 L 148 112 L 147 112 L 145 114 L 144 114 L 142 116 L 141 116 L 139 118 L 138 118 L 136 120 L 135 120 L 133 122 L 132 122 L 130 124 L 129 124 L 127 126 L 126 126 L 121 130 L 118 131 L 116 133 L 115 133 L 113 135 L 112 135 Z" fill="url(#navy)" fill-rule="evenodd"/>
<path d="M 54 219 L 54 227 L 55 228 L 55 229 L 59 233 L 60 233 L 61 234 L 63 234 L 64 235 L 68 235 L 69 234 L 71 234 L 72 233 L 73 233 L 76 230 L 76 229 L 78 226 L 106 226 L 106 220 L 105 219 L 78 219 L 77 218 L 76 215 L 73 212 L 72 212 L 71 211 L 69 211 L 68 210 L 64 210 L 63 211 L 61 211 L 60 212 L 59 212 L 55 216 L 55 218 Z M 9 157 L 9 159 L 8 160 L 8 166 L 9 167 L 9 169 L 14 174 L 15 174 L 16 175 L 24 175 L 25 174 L 28 173 L 30 171 L 30 170 L 32 168 L 32 167 L 33 166 L 54 166 L 56 168 L 57 168 L 59 170 L 60 170 L 63 173 L 64 173 L 66 175 L 67 175 L 69 177 L 70 177 L 72 179 L 73 179 L 76 182 L 77 182 L 79 184 L 80 184 L 82 186 L 83 186 L 85 188 L 86 188 L 88 190 L 89 190 L 91 192 L 92 192 L 94 194 L 95 194 L 98 197 L 99 197 L 101 199 L 102 199 L 104 201 L 105 201 L 106 202 L 106 194 L 105 194 L 102 191 L 101 191 L 99 189 L 98 189 L 96 187 L 95 187 L 93 185 L 92 185 L 89 182 L 88 182 L 86 180 L 85 180 L 83 178 L 82 178 L 80 176 L 79 176 L 77 174 L 76 174 L 73 171 L 72 171 L 70 169 L 69 169 L 67 167 L 66 167 L 64 165 L 63 165 L 61 163 L 60 163 L 58 161 L 57 161 L 56 160 L 33 160 L 32 159 L 31 156 L 27 152 L 26 152 L 25 151 L 16 151 L 15 152 L 14 152 Z M 75 74 L 74 75 L 73 75 L 71 77 L 70 77 L 70 78 L 68 80 L 68 81 L 67 82 L 67 90 L 68 91 L 69 94 L 72 97 L 73 97 L 76 99 L 76 154 L 77 155 L 78 155 L 80 157 L 81 157 L 84 160 L 87 161 L 90 164 L 91 164 L 93 166 L 94 166 L 97 169 L 98 169 L 103 173 L 106 174 L 106 167 L 103 164 L 100 163 L 97 160 L 96 160 L 94 158 L 93 158 L 91 156 L 90 156 L 88 154 L 87 154 L 82 150 L 82 99 L 84 97 L 87 96 L 88 95 L 88 94 L 90 92 L 90 91 L 91 90 L 91 82 L 90 81 L 90 80 L 85 75 L 84 75 L 83 74 Z M 138 8 L 137 9 L 137 99 L 138 100 L 140 98 L 141 98 L 144 95 L 147 94 L 150 91 L 151 91 L 151 34 L 152 33 L 153 34 L 154 34 L 156 36 L 157 36 L 159 38 L 160 38 L 162 40 L 163 40 L 165 42 L 166 42 L 168 44 L 171 45 L 173 47 L 174 47 L 176 49 L 177 49 L 182 53 L 185 54 L 187 56 L 188 56 L 193 60 L 196 61 L 198 63 L 199 63 L 201 65 L 202 65 L 204 67 L 205 67 L 207 69 L 208 69 L 211 72 L 211 128 L 214 131 L 215 131 L 217 133 L 218 133 L 221 136 L 222 136 L 223 137 L 225 137 L 225 64 L 223 62 L 222 62 L 220 60 L 217 59 L 215 57 L 214 57 L 212 55 L 211 55 L 206 51 L 203 50 L 201 48 L 200 48 L 195 44 L 192 43 L 190 41 L 189 41 L 187 39 L 186 39 L 184 37 L 183 37 L 181 35 L 180 35 L 175 31 L 172 30 L 167 26 L 164 25 L 161 22 L 158 21 L 156 19 L 155 19 L 153 17 L 152 17 L 150 15 L 149 15 L 144 11 L 143 11 L 142 10 L 141 10 L 139 8 Z" fill="url(#teal)" fill-rule="evenodd"/>
</svg>